Just Go With It 1080p Rip med danske undertekster.
Det er i mp4 format så det er lige til at smide på ens ps3 mm. :)


Trailer : http://www.lovefilm.dk/film/M%F8d-min-m%E5ske-kone/155637/


Danny Maccabee møder sin drømmepige, men bliver nødt til at bede sin trofaste assistent Katherine om at foregive at være hans kommende ekskone for at dække over en skødesløs løgn. Da flere løgne giver bagslag, bliver Katherines børn også indkaldt, og alle tager af sted til Hawaii på en tosset weekend, hvor det hele løber af sporet og afprøver grænserne for, hvor langt man vil gå i kærlighedens navn.


Media info:


Generelt
Format                           : MPEG-4
Format profile                   : Base Media / Version 2
Codec ID                         : mp42
File size                        : 8,25 GiB
Duration                         : 1t 56min.
Overall bit rate                 : 10,1 Mbps
Encoded date                     : UTC 2011-08-26 22:03:26
Tagged date                      : UTC 2011-08-26 22:54:29

Video
ID                               : 1
Format                           : AVC
Format/Info                      : Advanced Video Codec
Format profile                   : High@L4.1
Format settings, CABAC           : Ja
Format settings, ReFrames        : 2 billeder
Codec ID                         : avc1
Codec ID/Info                    : Advanced Video Coding
Duration                         : 1t 56min.
Bit rate mode                    : Variabel
Bit rate                         : 9.677 Kbps
Width                            : 1.920 billedpunkter
Height                           : 1.036 billedpunkter
Display aspect ratio             : 1,853
Frame rate mode                  : Variabel
Frame rate                       : 23,976 fps
Minimum frame rate               : 23,974 fps
Maximum frame rate               : 23,981 fps
Color space                      : YUV
Chroma subsampling               : 4:2:0
Bit depth                        : 8 bits
Scan type                        : Progressiv
Bits/(Pixel*Frame)               : 0.203
Stream size                      : 7,87 GiB (95%)
Writing library                  : x264 core
Encoded date                     : UTC 2011-08-26 22:03:26
Tagged date                      : UTC 2011-08-26 22:54:22
colour_primaries                 : BT.709-5, BT.1361, IEC 61966-2-4, SMPTE RP177
Overførselskarakteristika        : BT.709-5, BT.1361
Matrix-coefficienter             : BT.709-5, BT.1361, IEC 61966-2-4 709, SMPTE RP177

Lyd
ID                               : 2
Format                           : AAC
Format/Info                      : Advanced Audio Codec
Format profile                   : LC
Codec ID                         : 40
Duration                         : 1t 56min.
Bit rate mode                    : Variabel
Bit rate                         : 459 Kbps
Maximum bit rate                 : 630 Kbps
Channel(s)                       : 6 kanaler
Channel positions                : Front: L C R, Side: L R, LFE
Sampling rate                    : 48,0 KHz
Compression mode                 : Lossy
Stream size                      : 382 MiB (5%)
Encoded date                     : UTC 2011-08-26 22:03:26
Tagged date                      : UTC 2011-08-26 22:54:16